<svg width="570" height="717" viewBox="0 0 570 717" fill="none" xmlns="http://www.w3.org/2000/svg">
<g filter="url(#filter0_i_1006_25)">
<mask id="mask0_1006_25" style="mask-type:alpha" maskUnits="userSpaceOnUse" x="0" y="0" width="570" height="717">
<path d="M0 141C0 63.1278 63.1279 0 141 0H525C549.853 0 570 20.1472 570 45V567C570 649.843 502.843 717 420 717H82C36.7126 717 0 680.287 0 635V141Z" fill="#6BC785"/>
</mask>
<g mask="url(#mask0_1006_25)">
<path d="M0 141C0 63.1278 63.1279 0 141 0H525C549.853 0 570 20.1472 570 45V567C570 649.843 502.843 717 420 717H82C36.7126 717 0 680.287 0 635V141Z" fill="#6BC785"/>
</g>
</g>
<circle cx="28" cy="528" r="4" fill="#267144"/>
<circle cx="28" cy="562" r="4" fill="#267144"/>
<circle cx="28" cy="596" r="4" fill="#267144"/>
<circle cx="28" cy="630" r="4" fill="#267144"/>
<circle cx="65" cy="528" r="4" fill="#267144"/>
<circle cx="65" cy="562" r="4" fill="#267144"/>
<circle cx="65" cy="596" r="4" fill="#267144"/>
<circle cx="65" cy="630" r="4" fill="#267144"/>
<circle cx="102" cy="528" r="4" fill="#267144"/>
<circle cx="102" cy="562" r="4" fill="#267144"/>
<circle cx="102" cy="596" r="4" fill="#267144"/>
<circle cx="102" cy="630" r="4" fill="#267144"/>
<circle cx="139" cy="528" r="4" fill="#267144"/>
<circle cx="139" cy="562" r="4" fill="#267144"/>
<circle cx="139" cy="596" r="4" fill="#267144"/>
<circle cx="139" cy="630" r="4" fill="#267144"/>
<circle cx="443" cy="159" r="4" fill="#267144"/>
<circle cx="443" cy="193" r="4" fill="#267144"/>
<circle cx="443" cy="227" r="4" fill="#267144"/>
<circle cx="443" cy="261" r="4" fill="#267144"/>
<circle cx="480" cy="159" r="4" fill="#267144"/>
<circle cx="480" cy="193" r="4" fill="#267144"/>
<circle cx="480" cy="227" r="4" fill="#267144"/>
<circle cx="480" cy="261" r="4" fill="#267144"/>
<circle cx="517" cy="159" r="4" fill="#267144"/>
<circle cx="517" cy="193" r="4" fill="#267144"/>
<circle cx="517" cy="227" r="4" fill="#267144"/>
<circle cx="517" cy="261" r="4" fill="#267144"/>
<circle cx="554" cy="159" r="4" fill="#267144"/>
<circle cx="554" cy="193" r="4" fill="#267144"/>
<circle cx="554" cy="227" r="4" fill="#267144"/>
<circle cx="554" cy="261" r="4" fill="#267144"/>
<defs>
<filter id="filter0_i_1006_25" x="0" y="0" width="576" height="721" filterUnits="userSpaceOnUse" color-interpolation-filters="sRGB">
<feFlood flood-opacity="0" result="BackgroundImageFix"/>
<feBlend mode="normal" in="SourceGraphic" in2="BackgroundImageFix" result="shape"/>
<feColorMatrix in="SourceAlpha" type="matrix" values="0 0 0 0 0 0 0 0 0 0 0 0 0 0 0 0 0 0 127 0" result="hardAlpha"/>
<feOffset dx="6" dy="4"/>
<feGaussianBlur stdDeviation="13"/>
<feComposite in2="hardAlpha" operator="arithmetic" k2="-1" k3="1"/>
<feColorMatrix type="matrix" values="0 0 0 0 0 0 0 0 0 0 0 0 0 0 0 0 0 0 0.12 0"/>
<feBlend mode="normal" in2="shape" result="effect1_innerShadow_1006_25"/>
</filter>
</defs>
</svg>
