<svg width="93" height="31" viewBox="0 0 93 31" fill="none" xmlns="http://www.w3.org/2000/svg">
<path d="M15.64 15.4401V24.8001L15.72 26.6401C15.8 27.4934 16.0134 28.1068 16.36 28.4801C16.7067 28.8534 17.2934 29.0934 18.12 29.2001L20.16 29.3601V30.0001H0.960022V29.3601H2.20002C2.78669 29.2801 3.34669 29.2134 3.88002 29.1601C4.41336 29.0801 4.82669 28.8801 5.12002 28.5601C5.44002 28.2134 5.64002 27.6134 5.72002 26.7601L5.80002 24.9201V5.9601L5.72002 4.1201C5.64002 3.26676 5.44002 2.66676 5.12002 2.3201C4.80002 1.97343 4.34669 1.7601 3.76002 1.6801C3.17336 1.6001 2.66669 1.5601 2.24002 1.5601C1.81336 1.53343 1.41336 1.50676 1.04002 1.4801V0.840096L18.92 0.800097C21.4 0.800097 23.4134 0.906763 24.96 1.1201C26.5067 1.33343 27.76 1.7601 28.72 2.4001C29.7067 3.0401 30.48 3.8401 31.04 4.8001C31.6267 5.73343 31.92 6.82676 31.92 8.0801C31.92 9.01343 31.7467 9.94676 31.4 10.8801C31.08 11.8134 30.5734 12.6134 29.88 13.2801C29.1867 13.9468 28.32 14.4668 27.28 14.8401C26.2667 15.2134 24.64 15.4001 22.4 15.4001V15.6801C23.76 15.9734 24.8934 16.2534 25.8 16.5201C26.7334 16.7868 27.5734 17.1734 28.32 17.6801C29.0667 18.1868 29.7334 18.9468 30.32 19.9601C30.9334 20.9468 31.4267 22.0401 31.8 23.2401C32.1734 24.4134 32.5067 25.2534 32.8 25.7601C33.0934 26.2401 33.5067 26.4801 34.04 26.4801C34.7334 26.4801 35.1867 26.0401 35.4 25.1601C35.64 24.2534 35.76 23.2268 35.76 22.0801H36.4C36.4 23.3868 36.32 24.4268 36.16 25.2001C36 25.9734 35.6 26.7868 34.96 27.6401C34.32 28.4668 33.4 29.1468 32.2 29.6801C31.0267 30.1868 29.7467 30.4401 28.36 30.4401C26.2 30.4401 24.4667 29.8268 23.16 28.6001C21.88 27.3468 21.08 25.7201 20.76 23.7201C20.4667 21.6934 20.2267 19.9868 20.04 18.6001C19.7467 17.0534 19.36 16.1601 18.88 15.9201C18.4 15.6534 17.88 15.5068 17.32 15.4801C16.76 15.4534 16.2 15.4401 15.64 15.4401ZM18.84 14.6001C19.8534 14.4401 20.6134 13.7068 21.12 12.4001C21.6534 11.0934 21.92 9.6401 21.92 8.0401C21.92 6.73343 21.6534 5.45343 21.12 4.2001C20.5867 2.9201 19.9467 2.17343 19.2 1.9601C18.4534 1.74676 17.7867 1.62676 17.2 1.6001C16.6134 1.57343 16.0934 1.54676 15.64 1.5201V14.7201H17C17.7467 14.7201 18.36 14.6801 18.84 14.6001Z" fill="#224F34"/>
<path d="M49.7644 30.0001H36.8044V29.3601L37.7644 29.3201C38.5377 29.2401 39.0044 29.0534 39.1644 28.7601C39.3244 28.4668 39.4044 27.8268 39.4044 26.8401L39.4444 25.0001V15.4401L39.4044 13.8001C39.3511 13.1601 39.2711 12.6801 39.1644 12.3601C39.0577 12.0401 38.5777 11.8401 37.7244 11.7601L36.6444 11.6801V11.0401H47.1244V25.0001L47.1644 26.8401C47.1644 27.8001 47.2444 28.4401 47.4044 28.7601C47.5644 29.0534 48.0311 29.2401 48.8044 29.3201L49.7644 29.3601V30.0001ZM39.3644 4.3601C39.3644 3.3201 39.7377 2.4401 40.4844 1.7201C41.2577 0.973431 42.1777 0.600098 43.2444 0.600098C44.3377 0.600098 45.2577 0.960098 46.0044 1.6801C46.7777 2.37343 47.1644 3.26676 47.1644 4.3601C47.1644 5.42676 46.7777 6.33343 46.0044 7.0801C45.2577 7.8001 44.3377 8.1601 43.2444 8.1601C42.1777 8.1601 41.2577 7.8001 40.4844 7.0801C39.7377 6.33343 39.3644 5.42676 39.3644 4.3601Z" fill="#224F34"/>
<path d="M62.5581 11.6801C62.3981 11.6801 62.2381 11.6934 62.0781 11.7201C61.9181 11.7201 61.6248 11.7601 61.1982 11.8401C60.7982 11.8934 60.5981 12.2001 60.5981 12.7601C60.5981 13.0534 60.6248 13.3068 60.6782 13.5201C60.7315 13.7334 60.8248 14.0001 60.9581 14.3201L63.9981 22.4001L66.8382 15.0401C67.1581 14.1068 67.3181 13.3734 67.3181 12.8401C67.3181 12.4668 67.2248 12.2134 67.0381 12.0801C66.8515 11.9468 66.5582 11.8401 66.1581 11.7601L64.8782 11.6801V11.0401H71.5582V11.6801L70.0781 11.8401C69.6515 11.9201 69.2648 12.1734 68.9182 12.6001C68.5715 13.0001 68.2115 13.6801 67.8382 14.6401C67.4648 15.5734 66.7315 17.4401 65.6381 20.2401C64.5715 23.0401 63.7581 25.1734 63.1981 26.6401C62.6381 28.1068 62.1981 29.2801 61.8781 30.1601H59.0381C58.5848 29.0134 58.0248 27.5734 57.3581 25.8401C56.6915 24.0801 55.8515 21.9068 54.8381 19.3201C53.8248 16.7068 53.1315 14.9468 52.7581 14.0401C52.3848 13.1334 52.1048 12.5601 51.9181 12.3201C51.7581 12.0534 51.5048 11.8934 51.1581 11.8401C50.8115 11.7601 50.4915 11.7201 50.1981 11.7201C49.9048 11.6934 49.6915 11.6801 49.5581 11.6801V11.0401H62.5581V11.6801Z" fill="#224F34"/>
<path d="M92.4735 20.5201C92.4735 23.3468 91.3935 25.7068 89.2335 27.6001C87.1001 29.4668 84.5801 30.4001 81.6735 30.4001C78.6068 30.4001 76.0335 29.4668 73.9535 27.6001C71.9001 25.7068 70.8735 23.3468 70.8735 20.5201C70.8735 17.6934 71.9135 15.3468 73.9935 13.4801C76.1001 11.5868 78.6601 10.6401 81.6735 10.6401C84.6335 10.6401 87.1668 11.5734 89.2735 13.4401C91.4068 15.3068 92.4735 17.6668 92.4735 20.5201ZM84.5135 20.4801C84.5135 20.1068 84.4868 19.3601 84.4335 18.2401C84.3801 17.1201 84.3535 16.4534 84.3535 16.2401C84.3535 14.8001 84.1268 13.6134 83.6735 12.6801C83.2468 11.7468 82.5668 11.2801 81.6335 11.2801C80.7801 11.2801 80.1268 11.7734 79.6735 12.7601C79.2201 13.7201 78.9935 14.8801 78.9935 16.2401C78.9935 16.7468 78.9668 17.3734 78.9135 18.1201C78.8868 18.8401 78.8601 19.6268 78.8335 20.4801C78.8335 20.8534 78.8601 21.6268 78.9135 22.8001C78.9668 23.9468 78.9935 24.6134 78.9935 24.8001C78.9935 26.2401 79.2068 27.4268 79.6335 28.3601C80.0868 29.2934 80.7668 29.7601 81.6735 29.7601C82.5535 29.7601 83.2201 29.2801 83.6735 28.3201C84.1268 27.3601 84.3535 26.1868 84.3535 24.8001C84.3535 24.2668 84.3668 23.6401 84.3935 22.9201C84.4201 22.1734 84.4601 21.3601 84.5135 20.4801Z" fill="#224F34"/>
</svg>
